<svg width="24" height="24" viewBox="0 0 24 24" fill="none" xmlns="http://www.w3.org/2000/svg">
<g clip-path="url(#clip0_31_1946)">
<path d="M15.0038 22.2541C16.0573 22.9336 17.3126 23.2298 18.5588 23.0929C19.805 22.9557 20.966 22.3938 21.8466 21.5013L22.6164 20.7486C22.9539 20.4033 23.1429 19.9398 23.1429 19.457C23.1429 18.9743 22.9539 18.5106 22.6164 18.1655L19.349 14.9322C19.0066 14.5958 18.5459 14.4073 18.0659 14.4073C17.586 14.4073 17.1252 14.5958 16.7829 14.9322C16.4377 15.2697 15.9741 15.4587 15.4913 15.4587C15.0085 15.4587 14.5449 15.2697 14.1997 14.9322L9.0676 9.80007C8.8964 9.63135 8.76044 9.43028 8.66764 9.20855C8.57485 8.98683 8.52705 8.74885 8.52705 8.50849C8.52705 8.26811 8.57485 8.03015 8.66764 7.80841C8.76044 7.58669 8.8964 7.38562 9.0676 7.2169C9.40401 6.87459 9.59252 6.41382 9.59252 5.93387C9.59252 5.45391 9.40401 4.99316 9.0676 4.65083L5.81728 1.40049C5.47203 1.06299 5.00848 0.874023 4.52574 0.874023C4.04283 0.874023 3.57928 1.06299 3.23403 1.40049L2.48128 2.17031C1.589 3.05087 1.02705 4.21187 0.889912 5.45806C0.752769 6.70426 1.049 7.95965 1.72871 9.01314C5.26991 14.2321 9.77572 18.7262 15.0038 22.2541Z" stroke="black" stroke-linecap="round" stroke-linejoin="round"/>
</g>
<defs>
<clipPath id="clip0_31_1946">
<rect width="24" height="24" fill="white" transform="matrix(-1 0 0 1 24 0)"/>
</clipPath>
</defs>
</svg>
